<?xml version="1.0" encoding="UTF-8" standalone="no"?>
<!DOCTYPE svg PUBLIC "-//W3C//DTD SVG 1.1//EN"
 "http://www.w3.org/Graphics/SVG/1.1/DTD/svg11.dtd">
<!-- Generated by graphviz version 2.43.0 (0)
 -->
<!-- Title: decideD7 Pages: 1 -->
<svg width="414pt" height="831pt"
 viewBox="0.00 0.00 413.50 831.00" xmlns="http://www.w3.org/2000/svg" xmlns:xlink="http://www.w3.org/1999/xlink">
<g id="graph0" class="graph" transform="scale(1 1) rotate(0) translate(4 827)">
<title>decideD7</title>
<polygon fill="white" stroke="transparent" points="-4,4 -4,-827 409.5,-827 409.5,4 -4,4"/>
<!-- archive -->
<g id="node1" class="node">
<title>archive</title>
<polygon fill="none" stroke="black" points="75.5,-516 15.5,-516 15.5,-480 75.5,-480 75.5,-516"/>
<text text-anchor="middle" x="45.5" y="-494.3" font-family="Times,serif" font-size="14.00">Archive</text>
</g>
<!-- offline -->
<g id="node5" class="node">
<title>offline</title>
<polygon fill="none" stroke="black" points="102,-315 13,-315 13,-279 102,-279 102,-315"/>
<text text-anchor="middle" x="57.5" y="-293.3" font-family="Times,serif" font-size="14.00">Move offline</text>
</g>
<!-- archive&#45;&gt;offline -->
<g id="edge3" class="edge">
<title>archive&#45;&gt;offline</title>
<path fill="none" stroke="black" d="M46.54,-479.69C48.63,-445.05 53.34,-366.99 55.85,-325.36"/>
<polygon fill="black" stroke="black" points="59.36,-325.32 56.47,-315.13 52.37,-324.9 59.36,-325.32"/>
</g>
<!-- d9 -->
<g id="node2" class="node">
<title>d9</title>
<polygon fill="none" stroke="black" points="279,-111 194,-111 194,-73 279,-73 279,-111"/>
<text text-anchor="middle" x="236.5" y="-95.8" font-family="Times,serif" font-size="14.00">Migrate to</text>
<text text-anchor="middle" x="236.5" y="-80.8" font-family="Times,serif" font-size="14.00">Drupal &gt;= 9</text>
</g>
<!-- end -->
<g id="node3" class="node">
<title>end</title>
<path fill="none" stroke="black" d="M184.5,-36C184.5,-36 146.5,-36 146.5,-36 140.5,-36 134.5,-30 134.5,-24 134.5,-24 134.5,-12 134.5,-12 134.5,-6 140.5,0 146.5,0 146.5,0 184.5,0 184.5,0 190.5,0 196.5,-6 196.5,-12 196.5,-12 196.5,-24 196.5,-24 196.5,-30 190.5,-36 184.5,-36"/>
<text text-anchor="middle" x="165.5" y="-14.3" font-family="Times,serif" font-size="14.00">Decided</text>
</g>
<!-- d9&#45;&gt;end -->
<g id="edge16" class="edge">
<title>d9&#45;&gt;end</title>
<path fill="none" stroke="black" d="M218.58,-72.83C209.9,-64.02 199.33,-53.31 189.92,-43.76"/>
<polygon fill="black" stroke="black" points="192.19,-41.08 182.68,-36.42 187.21,-46 192.19,-41.08"/>
</g>
<!-- keep -->
<g id="node4" class="node">
<title>keep</title>
<polygon fill="none" stroke="black" points="362,-110 297,-110 297,-74 362,-74 362,-110"/>
<text text-anchor="middle" x="329.5" y="-88.3" font-family="Times,serif" font-size="14.00">Keep D7</text>
</g>
<!-- keep&#45;&gt;end -->
<g id="edge17" class="edge">
<title>keep&#45;&gt;end</title>
<path fill="none" stroke="black" d="M296.71,-76.6C270.62,-65.15 233.98,-49.07 206.05,-36.8"/>
<polygon fill="black" stroke="black" points="207.13,-33.46 196.57,-32.64 204.32,-39.87 207.13,-33.46"/>
</g>
<!-- offline&#45;&gt;end -->
<g id="edge4" class="edge">
<title>offline&#45;&gt;end</title>
<path fill="none" stroke="black" d="M57.33,-278.66C57.61,-247.47 60.94,-180.36 82.5,-129 96.21,-96.34 121.83,-64.65 141,-43.75"/>
<polygon fill="black" stroke="black" points="143.71,-45.98 147.99,-36.28 138.6,-41.19 143.71,-45.98"/>
</g>
<!-- out -->
<g id="node6" class="node">
<title>out</title>
<polygon fill="none" stroke="black" points="259,-167 178,-167 178,-129 259,-129 259,-167"/>
<text text-anchor="middle" x="218.5" y="-151.8" font-family="Times,serif" font-size="14.00">Migrate to</text>
<text text-anchor="middle" x="218.5" y="-136.8" font-family="Times,serif" font-size="14.00">new system</text>
</g>
<!-- out&#45;&gt;end -->
<g id="edge18" class="edge">
<title>out&#45;&gt;end</title>
<path fill="none" stroke="black" d="M198.26,-128.65C193.46,-123.37 188.78,-117.32 185.5,-111 175.02,-90.77 170.02,-65.29 167.64,-46.27"/>
<polygon fill="black" stroke="black" points="171.11,-45.75 166.55,-36.18 164.15,-46.5 171.11,-45.75"/>
</g>
<!-- start -->
<g id="node7" class="node">
<title>start</title>
<path fill="none" stroke="black" d="M111,-823C111,-823 12,-823 12,-823 6,-823 0,-817 0,-811 0,-811 0,-799 0,-799 0,-793 6,-787 12,-787 12,-787 111,-787 111,-787 117,-787 123,-793 123,-799 123,-799 123,-811 123,-811 123,-817 117,-823 111,-823"/>
<text text-anchor="middle" x="61.5" y="-801.3" font-family="Times,serif" font-size="14.00">Drupal 7 site future</text>
</g>
<!-- qinuse -->
<g id="node12" class="node">
<title>qinuse</title>
<polygon fill="none" stroke="black" points="61.5,-750 10.05,-732 61.5,-714 112.95,-732 61.5,-750"/>
<text text-anchor="middle" x="61.5" y="-728.3" font-family="Times,serif" font-size="14.00">In use?</text>
</g>
<!-- start&#45;&gt;qinuse -->
<g id="edge1" class="edge">
<title>start&#45;&gt;qinuse</title>
<path fill="none" stroke="black" d="M61.5,-786.81C61.5,-778.79 61.5,-769.05 61.5,-760.07"/>
<polygon fill="black" stroke="black" points="65,-760.03 61.5,-750.03 58,-760.03 65,-760.03"/>
</g>
<!-- staticgen -->
<g id="node8" class="node">
<title>staticgen</title>
<g id="a_node8"><a xlink:href="https://www.drupal.org/node/27882" xlink:title="Generate a static\nsite archive">
<polygon fill="none" stroke="black" points="181,-390 74,-390 74,-352 181,-352 181,-390"/>
<text text-anchor="middle" x="127.5" y="-374.8" font-family="Times,serif" font-size="14.00">Generate a static</text>
<text text-anchor="middle" x="127.5" y="-359.8" font-family="Times,serif" font-size="14.00">site archive</text>
</a>
</g>
</g>
<!-- statichost -->
<g id="node9" class="node">
<title>statichost</title>
<polygon fill="none" stroke="black" points="172,-167 83,-167 83,-129 172,-129 172,-167"/>
<text text-anchor="middle" x="127.5" y="-151.8" font-family="Times,serif" font-size="14.00">Upload to</text>
<text text-anchor="middle" x="127.5" y="-136.8" font-family="Times,serif" font-size="14.00">static hosting</text>
</g>
<!-- staticgen&#45;&gt;statichost -->
<g id="edge9" class="edge">
<title>staticgen&#45;&gt;statichost</title>
<path fill="none" stroke="black" d="M127.5,-351.91C127.5,-313.45 127.5,-223.3 127.5,-177.21"/>
<polygon fill="black" stroke="black" points="131,-177.03 127.5,-167.03 124,-177.03 131,-177.03"/>
</g>
<!-- statichost&#45;&gt;end -->
<g id="edge10" class="edge">
<title>statichost&#45;&gt;end</title>
<path fill="none" stroke="black" d="M131.43,-128.98C135.71,-110.09 143.09,-79.67 151.5,-54 152.4,-51.26 153.4,-48.43 154.45,-45.61"/>
<polygon fill="black" stroke="black" points="157.71,-46.87 158.08,-36.29 151.19,-44.33 157.71,-46.87"/>
</g>
<!-- qanonuse -->
<g id="node10" class="node">
<title>qanonuse</title>
<polygon fill="none" stroke="black" points="161.5,-536 93.5,-498 161.5,-460 229.5,-498 161.5,-536"/>
<text text-anchor="middle" x="161.5" y="-501.8" font-family="Times,serif" font-size="14.00">Only non</text>
<text text-anchor="middle" x="161.5" y="-486.8" font-family="Times,serif" font-size="14.00">auth?</text>
</g>
<!-- qanonuse&#45;&gt;staticgen -->
<g id="edge8" class="edge">
<title>qanonuse&#45;&gt;staticgen</title>
<path fill="none" stroke="black" d="M152.74,-464.81C147.27,-444.7 140.3,-419.06 135.07,-399.83"/>
<polygon fill="black" stroke="black" points="138.44,-398.88 132.44,-390.15 131.68,-400.72 138.44,-398.88"/>
<text text-anchor="middle" x="156" y="-430.8" font-family="Times,serif" font-size="14.00">yes</text>
</g>
<!-- qtechchoose -->
<g id="node14" class="node">
<title>qtechchoose</title>
<polygon fill="none" stroke="black" points="302.5,-409 199.5,-371 302.5,-333 405.5,-371 302.5,-409"/>
<text text-anchor="middle" x="302.5" y="-374.8" font-family="Times,serif" font-size="14.00">Better solution</text>
<text text-anchor="middle" x="302.5" y="-359.8" font-family="Times,serif" font-size="14.00">outside Drupal?</text>
</g>
<!-- qanonuse&#45;&gt;qtechchoose -->
<g id="edge11" class="edge">
<title>qanonuse&#45;&gt;qtechchoose</title>
<path fill="none" stroke="black" d="M187.36,-474.07C209.17,-454.74 240.66,-426.82 265.2,-405.07"/>
<polygon fill="black" stroke="black" points="267.74,-407.49 272.9,-398.24 263.09,-402.26 267.74,-407.49"/>
<text text-anchor="middle" x="246.5" y="-430.8" font-family="Times,serif" font-size="14.00">no</text>
</g>
<!-- qd9 -->
<g id="node11" class="node">
<title>qd9</title>
<polygon fill="none" stroke="black" points="302.5,-261 251.5,-223 302.5,-185 353.5,-223 302.5,-261"/>
<text text-anchor="middle" x="302.5" y="-226.8" font-family="Times,serif" font-size="14.00">Fit for</text>
<text text-anchor="middle" x="302.5" y="-211.8" font-family="Times,serif" font-size="14.00">D9?</text>
</g>
<!-- qd9&#45;&gt;d9 -->
<g id="edge14" class="edge">
<title>qd9&#45;&gt;d9</title>
<path fill="none" stroke="black" d="M292.16,-192.22C285.15,-173.52 275.08,-149.2 263.5,-129 261.64,-125.76 259.54,-122.47 257.34,-119.27"/>
<polygon fill="black" stroke="black" points="260.12,-117.14 251.43,-111.08 254.45,-121.24 260.12,-117.14"/>
<text text-anchor="middle" x="291" y="-144.3" font-family="Times,serif" font-size="14.00">yes</text>
</g>
<!-- qd9&#45;&gt;keep -->
<g id="edge15" class="edge">
<title>qd9&#45;&gt;keep</title>
<path fill="none" stroke="black" d="M309.24,-189.78C313.74,-168.3 319.58,-140.39 323.84,-120.06"/>
<polygon fill="black" stroke="black" points="327.28,-120.7 325.9,-110.2 320.43,-119.27 327.28,-120.7"/>
<text text-anchor="middle" x="328.5" y="-144.3" font-family="Times,serif" font-size="14.00">no</text>
</g>
<!-- qinuse&#45;&gt;archive -->
<g id="edge2" class="edge">
<title>qinuse&#45;&gt;archive</title>
<path fill="none" stroke="black" d="M59.58,-714.53C58.03,-700.77 55.89,-680.63 54.5,-663 50.71,-614.99 48.01,-558.94 46.6,-526.36"/>
<polygon fill="black" stroke="black" points="50.09,-526.1 46.18,-516.25 43.1,-526.39 50.09,-526.1"/>
<text text-anchor="middle" x="61.5" y="-621.3" font-family="Times,serif" font-size="14.00">no</text>
</g>
<!-- qneedsonline -->
<g id="node13" class="node">
<title>qneedsonline</title>
<polygon fill="none" stroke="black" points="150.5,-663 77.5,-625 150.5,-587 223.5,-625 150.5,-663"/>
<text text-anchor="middle" x="150.5" y="-628.8" font-family="Times,serif" font-size="14.00">Needs to</text>
<text text-anchor="middle" x="150.5" y="-613.8" font-family="Times,serif" font-size="14.00">be online?</text>
</g>
<!-- qinuse&#45;&gt;qneedsonline -->
<g id="edge5" class="edge">
<title>qinuse&#45;&gt;qneedsonline</title>
<path fill="none" stroke="black" d="M72.77,-717.7C85.02,-703.25 105.08,-679.59 121.75,-659.92"/>
<polygon fill="black" stroke="black" points="124.62,-661.94 128.42,-652.05 119.28,-657.42 124.62,-661.94"/>
<text text-anchor="middle" x="112" y="-684.8" font-family="Times,serif" font-size="14.00">yes</text>
</g>
<!-- qneedsonline&#45;&gt;archive -->
<g id="edge6" class="edge">
<title>qneedsonline&#45;&gt;archive</title>
<path fill="none" stroke="black" d="M128.74,-598.1C110.42,-576.29 84.38,-545.29 66.33,-523.8"/>
<polygon fill="black" stroke="black" points="68.94,-521.47 59.83,-516.06 63.58,-525.97 68.94,-521.47"/>
<text text-anchor="middle" x="110.5" y="-557.8" font-family="Times,serif" font-size="14.00">no</text>
</g>
<!-- qneedsonline&#45;&gt;qanonuse -->
<g id="edge7" class="edge">
<title>qneedsonline&#45;&gt;qanonuse</title>
<path fill="none" stroke="black" d="M153.62,-588.51C154.82,-574.92 156.2,-559.22 157.47,-544.8"/>
<polygon fill="black" stroke="black" points="160.98,-544.84 158.37,-534.57 154.01,-544.23 160.98,-544.84"/>
<text text-anchor="middle" x="166" y="-557.8" font-family="Times,serif" font-size="14.00">yes</text>
</g>
<!-- qtechchoose&#45;&gt;out -->
<g id="edge12" class="edge">
<title>qtechchoose&#45;&gt;out</title>
<path fill="none" stroke="black" d="M282.94,-340.14C269.78,-318.85 253,-289.13 242.5,-261 232.24,-233.5 225.83,-200.47 222.24,-177.44"/>
<polygon fill="black" stroke="black" points="225.67,-176.69 220.75,-167.31 218.75,-177.71 225.67,-176.69"/>
<text text-anchor="middle" x="276" y="-293.3" font-family="Times,serif" font-size="14.00">yes</text>
</g>
<!-- qtechchoose&#45;&gt;qd9 -->
<g id="edge13" class="edge">
<title>qtechchoose&#45;&gt;qd9</title>
<path fill="none" stroke="black" d="M302.5,-332.78C302.5,-314.07 302.5,-291.21 302.5,-271.27"/>
<polygon fill="black" stroke="black" points="306,-271.15 302.5,-261.15 299,-271.15 306,-271.15"/>
<text text-anchor="middle" x="309.5" y="-293.3" font-family="Times,serif" font-size="14.00">no</text>
</g>
</g>
</svg>
